# xmcd CD database file
#
# Track frame offsets:
#	150
#	16416
#	34308
#	51939
#	67486
#	90307
#	104104
#	119519
#	138040
#	168251
#	187918
#	205632
#	226106
#	238888
#	252125
#	269480
#	287781
#	301088
#	321186
#	339730
#
# Disc length: 4780 seconds
#
# Revision: 2
# Processed by: cddbd v1.5.2PL0 Copyright (c) Steve Scherf et al.
# Submitted via: CDex 1.51
#
DISCID=2412aa14
DTITLE=Sensation - Black edition 2008 Disc1
DYEAR=2008
DGENRE=Country
TTITLE0=Marcel Woods - Life Is like A Box Of Chocolat
TTITLE1=Mr Sam vs Human Resource - Dominator
TTITLE2=Fausto - Rise Up
TTITLE3=Fausto - Musical Porn
TTITLE4=Marcel Woods feat MC Da Silva - On Fire
TTITLE5=Fausto - Lupara
TTITLE6=Frontliner - Spacer
TTITLE7=Technoboy - Bomb Squad
TTITLE8=Showtek - Black Anthem 2008
TTITLE9=Headhunterz - Rock Civilization
TTITLE10=Abyss and Judge - Hardstyle Revolution
TTITLE11=Dutch Master - Back To The Real Style
TTITLE12=Donkey Rollers - Thunderbeats
TTITLE13=Donkey Rollers - LMPSJNK
TTITLE14=Headhunterz - Subsonic
TTITLE15=Technoboy - Rage
TTITLE16=Project One - Art of Creation
TTITLE17=The Prophet - Chubby
TTITLE18=Scope DJ - Final Destination
TTITLE19=Donkey Rollers - The Fusion of Sound
EXTD=YEAR: 2008
EXTT0=
EXTT1=
EXTT2=
EXTT3=
EXTT4=
EXTT5=
EXTT6=
EXTT7=
EXTT8=
EXTT9=
EXTT10=
EXTT11=
EXTT12=
EXTT13=
EXTT14=
EXTT15=
EXTT16=
EXTT17=
EXTT18=
EXTT19=
PLAYORDER=
